<svg xmlns="http://www.w3.org/2000/svg" width="32" height="32" viewBox="0 0 32 32">
  <path d="M0 9.6h32v12.96H0z" fill="#0A0101"/>
  <path d="M7.962 13.075c.553.317.912.673 1.318 1.165v.32l-.31.05-.33.11-.16.48H7.04l.16 2.08c.173-.877.173-.877.16-1.44h.96l-.011.357-.009.473-.011.467c.033.486.161.819.351 1.263v.48l.64.16c-.332.639-.638.961-1.26 1.32l-.409.243a4.02 4.02 0 0 1-2.849.254c-1.167-.471-2.176-1.191-2.763-2.326-.434-1.138-.431-2.356.04-3.48 1.185-2.275 3.589-3.018 5.923-1.976" fill="#080303"/>
  <path d="M12.64 13.76h.48v1.44h1.12v.64h-1.12v.48l.64.16h-.64v.32l.64.16h-.64v.64h1.12v.16l-1.76.16-.06.54c-.1.58-.1.58-.42.9-1.041.11-1.819-.108-2.72-.64q-.245-.235-.48-.48c-.51-.34-.842-.4-1.44-.48v-.16h.96v-1.76h-.96v.48l.64.16h-.64v.32l.64.16h-.64l-.16.96h-.16V15.2h1.92l.332-.382c.606-.541 1.082-.598 1.868-.698.805-.046.805-.046 1.48-.36" fill="#A8100F"/>
  <path d="M23.84 10.08v.32l.37.04c.43.12.43.12.72.39.19.37.19.37.17.82.028.714.375 1.093.82 1.63h-.64v5.76h-.8v-.96h-.32v.96H24v-1.12h.48V14.4h-1.6v.48l.32.16h-.32v.32l.32.16h-.32v3.52h-.8v-5.76l-.64-.16.4-.41c.469-.553.413-.953.4-1.67.401-.53.911-.96 1.6-.96" fill="#F9F8F8"/>
  <path d="M8.101 12.412c.686.412 1.254.946 1.819 1.508l.409-.216.531-.274.529-.276.451-.194 1.28.64c-.667.64-1.477.64-2.354.742-.846.123-1.243.335-1.806 1.018-.16.16-.16.16-.491.176l-.399-.006-.401-.004-.309-.006v-.16l1.12-.16v-.8l.16.32.64-.16c-.679-.983-1.396-1.476-2.56-1.76-1.435-.196-2.446.171-3.65.92-.953.98-1.219 2.197-1.204 3.527.113 1.07.602 1.933 1.384 2.663.845.646 1.743.986 2.819.935 1.11-.151 1.914-.564 2.759-1.292.292-.193.292-.193.932-.193-.466 1.035-1.262 1.569-2.3 1.98-1.495.485-2.692.323-4.1-.38a5.27 5.27 0 0 1-2.178-2.861c-.25-1.361-.181-2.684.578-3.859 1.542-2.092 3.884-2.939 6.341-1.828" fill="#080707"/>
  <path d="M8.96 12.16c.524.446.991.92 1.44 1.44l-.48.48-.3-.34c-1.056-1.059-2.255-1.596-3.73-1.63-1.477.016-2.457.505-3.534 1.5-.936 1.051-1.134 2.235-1.121 3.602.094 1.161.558 2.168 1.349 3.022a5.34 5.34 0 0 0 3.565 1.25c1.292-.138 2.272-.659 3.169-1.581.282-.223.282-.223.922-.223-.116.737-.515 1.029-1.068 1.491-1.224.884-2.562 1.195-4.052 1.069-1.524-.265-2.85-1.029-3.75-2.3-.893-1.503-1.143-2.996-.796-4.728a5.66 5.66 0 0 1 2.413-3.164c1.928-.994 4.089-1.049 5.973.112" fill="#DFDDDD"/>
  <path d="M7.962 13.075c.553.317.912.673 1.318 1.165v.32c-.27.13-.27.13-.64.16a45 45 0 0 1-.8-.8c-.932-.541-1.814-.616-2.88-.48-.951.285-1.522.795-2.08 1.6-.43.911-.5 1.926-.223 2.901.113.266.248.524.383.779l.15.37c.229.363.409.432.81.59l.287.126c1.056.439 1.859.476 2.943.074.6-.253.958-.53 1.41-1 .36.04.36.04.64.16-.332.639-.638.961-1.26 1.32l-.409.243a4.02 4.02 0 0 1-2.849.254c-1.167-.471-2.176-1.191-2.763-2.326-.434-1.138-.431-2.356.04-3.48 1.185-2.275 3.589-3.018 5.923-1.976" fill="#DEDDDD"/>
  <path d="M7.04 15.2c2.357 0 2.357 0 2.88.16.237.364.343.701.48 1.12l.28-.47c.36-.49.36-.49.72-.63l.28-.02c.11.25.11.25.16.64a19 19 0 0 1-.48 1.12l-.15.5c-.2.542-.377.873-.81 1.26-.573 0-.949-.02-1.4-.39l-.2-.25c-.51-.34-.842-.4-1.44-.48v-.16h.96v-1.76h-.96v.48l.64.16h-.64v.32l.64.16h-.64l-.16.96h-.16z" fill="#B80F0F"/>
  <path d="M14.4 15.2v2.88l-1.12.16-.14.46c-.18.5-.18.5-.5.82l.64.32c-.605.294-.951.345-1.6.16l-.16.32c-.699-.175-1.205-.341-1.76-.8a29 29 0 0 0-.64-.32c-.48-.32-.48-.32-.59-.74l-.05-.38c.415.199.813.419 1.21.65.837.472 1.374.5 2.31.47.269-.269.196-.611.211-.981l.02-.502.019-.528.021-.53q.026-.65.049-1.3h.16v2.56h.32V15.36h.16l.16 1.44v-.96h1.12v-.32h-1.12v-.16c1.1-.16 1.1-.16 1.28-.16" fill="#750A09"/>
  <path d="M27.05 15.1c.63.1.63.1 1.02.39.417.584.494 1.086.41 1.79-.33.46-.33.46-.8.8-.688.111-.994.083-1.58-.3-.396-.396-.485-.549-.56-1.1.105-.907.572-1.531 1.51-1.58" fill="#989898"/>
  <path d="M3.68 15.2c1.845-.044 1.845-.044 2.4.32.217.433.17.802.16 1.28l-.64.32.24.21c.24.27.24.27.24.75h-.96l-.05-.31-.11-.33-.48-.16v.64h-.8z" fill="#7E7E7E"/>
  <path d="M18.08 15.2h.96a104 104 0 0 1 .49 1.08l.143.308c.339.765.339.765.277 1.245l-.11.247-.25-.17c-.547-.211-.941-.1-1.51.01l-.47.09-.33.07c-.223-.668.047-1.093.31-1.71l.141-.34q.173-.416.349-.83" fill="#A80E0E"/>
  <path d="M29.6 15.2c.571.301.888.507 1.12 1.12l.16-1.12h.32v1.92l.16-1.92h.32v2.72c-.505.168-.645.208-1.12 0-.28-.41-.28-.41-.48-.8l-.16.8h-.64a129 129 0 0 1-.02-1.18l-.008-.339c-.003-.294.012-.588.028-.881z" fill="#AB0E0E"/>
  <path d="m11.84 15.2.48.16q.013.91.02 1.82l.008.524.003.5.005.462c-.036.374-.036.374-.356.694-.956.081-1.547-.053-2.4-.48.32-.16.32-.16.63-.21.446-.149.556-.359.81-.75.147-.373.147-.373.25-.77l.119-.422.111-.408.19-.66z" fill="#950E0D"/>
  <path d="M22.88 14.4h1.6v3.52l-1.28.16v-.48h.32v-.32l-.32-.16v-.8h.32v-.64h-.32v-.32h-.32z" fill="#464646"/>
  <path d="M9.28 15.36h.48c.332.37.482.645.64 1.12l.28-.47c.36-.49.36-.49.72-.63l.28-.02c.14.394.176.591.047.995l-.177.365-.173.365c-.356.716-.356.716-.497.995h-.32l-.16-.32-.48.16c-.096-.442-.16-.826-.16-1.28h-.32c-.229-.377-.334-.557-.26-1z" fill="#E9A4A4"/>
  <path d="m11.84 12.96 1.28.64c-.667.64-1.477.64-2.354.742-.846.123-1.243.335-1.806 1.018-.16.16-.16.16-.491.176l-.399-.006-.401-.004-.309-.006v-.16l1.12-.16v-.8l.16.32c.313-.018.313-.018.64-.16.208-.398.208-.398.32-.8l.32.16a16 16 0 0 0 .96-.48 16 16 0 0 1 .96-.48" fill="#570C0C"/>
  <path d="m22.88 15.52.64.16v.64h-.32v.64l.32.16v.8l.96.16v.96h.8v.16h-3.2v-.16h.8z" fill="#1E1D1D"/>
  <path d="M27.01 15.15c.531.003.636.022 1.07.37l.24.32-.32.48h-.32l-.16.8c-.381.136-.594.172-.99.07-.29-.23-.29-.23-.41-.73l-.04-.46h.48l-.32-.64c.16-.16.16-.16.77-.21" fill="#9D9D9D"/>
  <path d="m14.24 11.52.32.32c-.797.414-1.606.792-2.43 1.15l-.567.247a6 6 0 0 1-1.323.363l-.48-.64.327-.051c.575-.133 1.101-.352 1.643-.579 1.655-.676 1.655-.676 2.51-.81" fill="#1F0202"/>
  <path d="m8.96 15.2.8.16-.32.32-.16-.16.16.8h.48l-.09.28c-.077.397-.025.618.09 1v.32h.32l.16-.32v.48l-.8.32c-.984-.984-.984-.984-.99-1.73l-.007-.423c.038-.424.142-.683.357-1.047" fill="#D9211F"/>
  <path d="M14.4 15.2v2.88l-1.28-.16v-2.08h1.12v-.32h-1.12v-.16c1.1-.16 1.1-.16 1.28-.16" fill="#5B0707"/>
  <path d="M8.48 18.08c.401.166.61.277.86.64.541.666 1.463.691 2.271.782l.369.038.38.042.92.098c-.16.32-.16.32-.44.43-.423.059-.748-.007-1.16-.11l-.16.32c-.699-.175-1.205-.341-1.76-.8a29 29 0 0 0-.64-.32c-.48-.32-.48-.32-.59-.74z" fill="#570707"/>
  <path d="M7.36 15.84h.96v2.24H7.04l.07-.328.09-.432.09-.428c.088-.448.088-.448.07-1.052" fill="#460605"/>
  <path d="M20 15.52h1.76v.32h-.48v2.08l-.8.16v-2.24H20z" fill="#BEBCBC"/>
  <path d="m11.04 15.36.8.16c-.106.702-.35 1.277-.64 1.92h-1.12l.16-.64h.32l.06-.36a3.8 3.8 0 0 1 .42-1.08" fill="#D58F8F"/>
  <path d="M28.32 16c.231.462.22.767.16 1.28-.33.46-.33.46-.8.8-.61.05-.61.05-1.12 0l.16-.48c.33-.11.33-.11.64-.16l.12-.54c.2-.58.2-.58.54-.81z" fill="#8E8E8E"/>
  <path d="M14.72 15.36h.16v2.56h.32v-2.56h.16v1.92l1.12.16v.64h-1.76z" fill="#BEB3B3"/>
  <path d="m4.16 15.84 1.28.16v.16h-.96v.96l.53-.03c.59.03.59.03.9.24.17.27.17.27.17.75h-.96l-.05-.31-.11-.33-.48-.16v.64h-.32z" fill="#CDCDCD"/>
  <path d="M10.72 14.4v1.12h.48l-.64 1.28c-.32-.32-.32-.32-.47-.89l-.17-.55-.48-.16c.331-.364.752-.8 1.28-.8" fill="#B91514"/>
  <path d="M23.2 15.52h.48v.96h-.32v.32h.8v.32h.32v.8l-1.28.16v-.48h.32v-.32l-.32-.16v-.8h.32v-.64z" fill="#8B8B8B"/>
  <path d="m26.08 16 .48.16.41-.09.39-.07.32.32c-.06.42-.06.42-.16.8-.381.136-.594.172-.99.07-.29-.23-.29-.23-.41-.73z" fill="#090909"/>
  <path d="m10.88 17.28.32.16-.16.48zm-2.4.48.44.16c.622.191 1.021.206 1.64 0l.32.32-.48.64c-1.045-.099-1.045-.099-1.4-.39l-.2-.25-.48-.32z" fill="#AF1110"/>
  <path d="M29.44 15.36c.31.13.31.13.64.32.177.532.142.607 0 1.12q-.084.56-.16 1.12h-.64l-.01-1.19-.004-.343q0-.433.014-.867z" fill="#AF0F0F"/>
  <path d="M8.8 15.36v2.56l-1.44-.16v-.16h.96v-1.92h-.96v-.16z" fill="#C81110"/>
  <path d="M13.12 13.6v.16l-2.88.16c.214-.428.437-.478.87-.67l.389-.177c.578-.192 1.093.263 1.621.527" fill="#530706"/>
  <path d="M17.44 16.8c.48.16.48.16.64.48.485.105.485.105.96.16v.32q-.39.087-.78.17l-.439.096c-.381.054-.381.054-.701-.106z" fill="#7E0A0A"/>
  <path d="m23.04 11.68.48.16-.16.64h.48l-.16-.8h.48v1.44h-1.12z" fill="#040303"/>
  <path d="M29.6 15.2c.571.301.888.507 1.12 1.12l.16-1.12.32.16-.16 1.44c-.419 0-.722-.05-1.12-.16l.16-.64-.48-.32z" fill="#740909"/>
  <path d="M22.88 14.4H24v.96c-.76.18-.76.18-1.12 0z" fill="#252424"/>
  <path d="m22.88 15.52.64.16v.64h-.32v.64l.32.16v.48l-.64.16z" fill="#131212"/>
  <path d="m17.92 15.68.48.16h.48c0 .48 0 .48-.16.8q-.476.175-.96.32c-.149-.417-.184-.583-.01-1z" fill="#A90E0E"/>
  <path d="m12.67 12.54.29.1c-.29.17-.29.17-.64.32l-.48-.16c.48-.32.48-.32.83-.26m-2.91.42h2.08c-.96.64-.96.64-1.37.61-.39-.13-.39-.13-.71-.61" fill="#340808"/>
  <path d="M10.4 19.84q.425.108.85.22l.478.124c.432.136.432.136.912.456v.32c-1.468-.188-1.468-.188-2.02-.74z" fill="#340404"/>
  <path d="m11.81 13.74.473.009.357.011-.16.32c-.433.076-.854.134-1.29.18l-.368.042-.902.098c.16-.32.16-.32.512-.499.486-.153.869-.174 1.378-.161" fill="#780A09"/>
  <path d="M12.32 20.96c.78.061 1.496.252 2.24.48v.16c-.918.033-1.697.043-2.56-.32z" fill="#1D0202"/>
  <path d="M8.48 18.08c.395.163.612.283.87.63.299.394.618.576 1.05.81l-.16.48-.2-.22c-.293-.272-.56-.411-.92-.58-.48-.32-.48-.32-.59-.74z" fill="#561010"/>
  <path d="M24 14.4h.48V16H24v-.48l-.32-.16H24z" fill="#838383"/>
  <path d="M26.4 15.2h1.28l-.16.48a11 11 0 0 1-.64.16l-.16.32-.48-.48z" fill="#7B7B7B"/>
  <path d="M6.08 15.84h.16v.96c-.442.289-.622.322-1.16.26l-.44-.1v-.32l.46.01c.485.026.485.026.82-.17.104-.324.104-.324.16-.64" fill="#B8B8B8"/>
  <path d="M11.36 14.24v.16l-.287.094c-.659.217-1.312.437-1.953.706.158-.431.266-.609.67-.84.537-.143 1.017-.142 1.57-.12" fill="#9F0E0D"/>
  <path d="M18.08 15.2h.96l-.16.8-.32-.16-.32.32c-.17-.3-.17-.3-.32-.64z" fill="#750A0A"/>
  <path d="M23.68 17.92H24v1.12h-1.12l.64-.16-.01-.39c.01-.41.01-.41.17-.57" fill="#4A4A4A"/>
  <path d="M5.76 17.28c.32.32.32.32.32.8h-.96v-.48z" fill="#777"/>
  <path d="m18.24 16.48.8.32-.16.48-.8-.16c0-.48 0-.48.16-.64" fill="#480606"/>
  <path d="m24 16.8.16.32h.32v.8H24v-.8l-.32-.16z" fill="#919191"/>
  <path d="M23.52 14.4H24v.96l-.48.16z" fill="#353535"/>
  <path d="M19.52 17.12h.32l.16.8h-.48c-.09-.31-.09-.31-.16-.64z" fill="#8C0C0C"/>
  <path d="m19.04 15.52.32.32c-.051.527-.247.778-.64 1.12.094-.484.196-.963.32-1.44" fill="#970C0C"/>
  <path d="m26.08 15.52.64.64-.32.32-.16-.32h-.48z" fill="#B1B1B1"/>
</svg>
