<svg xmlns="http://www.w3.org/2000/svg" width="50" height="8.729" viewBox="0 0 50 8.729">
  <path d="M0 0h50v8.729H0z" fill="#FEFEFE"/>
  <path d="M39.751 2.764a.74.74 0 0 1 .299.299c.02.196-.006.33-.129.483a1.7 1.7 0 0 1-.493.346c.036.111.099.191.17.282a13 13 0 0 1 .333.456q.114.163.235.321c.163-.175.255-.439.286-.674a.4.4 0 0 0-.102-.202c-.076-.055-.162-.058-.253-.069v-.138h.99v.115l-.051.026c-.32.168-.45.409-.601.728l-.037.077c-.077.154-.077.154-.117.32.113.19.314.415.53.484a.48.48 0 0 0 .309-.04c.059-.048.059-.048.095-.104l.033-.039c.062-.006.062-.006.115 0-.008.125-.076.213-.161.299-.178.14-.384.138-.599.115-.237-.049-.433-.226-.576-.415a.6.6 0 0 0-.186.132 1.08 1.08 0 0 1-.803.291c-.225-.015-.401-.127-.555-.285l-.039-.036c-.149-.149-.196-.363-.202-.569.011-.277.138-.455.331-.645.128-.118.274-.217.416-.317a3 3 0 0 0-.128-.279.86.86 0 0 1-.087-.631.77.77 0 0 1 .425-.377c.18-.06.382-.03.553.046" fill="#050505"/>
  <path d="M5.666 2.764h.944l.181.415a107 107 0 0 0 .477 1.071 82 82 0 0 1 .424.955c.054-.054.072-.099.101-.168l.034-.079.018-.043.1-.234.022-.051.275-.63.106-.24.026-.059.174-.399.045-.104.084-.194.037-.086.033-.075c.028-.056.028-.056.051-.079q.104-.003.209-.002h.063l.201.001h.136l.335.001v.115l-.082.002-.108.004-.054.001c-.111.005-.111.005-.205.061a.27.27 0 0 0-.061.191l-.001.062v.14l-.001.235v.081l-.001.424-.002.439-.001.337-.001.162v.226l-.001.067c.001.133.016.208.104.31.073.037.153.032.233.036l.053.003.129.007v.115H8.269v-.115l.072-.003.095-.005.048-.002a.5.5 0 0 0 .185-.041c.102-.114.09-.264.089-.407v-.068l-.001-.222v-.154l-.001-.406-.001-.414-.003-.813-.026.06-.602 1.374-.027.061-.17.388-.116.264-.056.127-.077.176-.023.053c-.053.12-.053.12-.078.146h-.115l-.022-.052a50 50 0 0 0-.431-.98q-.224-.496-.442-.995l-.026-.059-.047-.108q-.09-.205-.183-.408l-.005.837-.002.389-.002.375-.001.143-.001.201-.001.059a.57.57 0 0 0 .104.345c.109.098.228.117.368.138v.115H5.689v-.115l.051-.012c.177-.041.177-.041.317-.149.086-.167.096-.324.096-.507v-.062l.001-.202v-.436l.001-.378.001-.291.001-.139v-.195l.001-.058a.5.5 0 0 0-.078-.288c-.083-.055-.15-.056-.246-.06l-.049-.003-.119-.007z" fill="#060606"/>
  <path d="M3.465 2.737h.243l.248-.001h.16l.074-.001c.331.001.653.058.904.292.169.189.193.389.181.635a.87.87 0 0 1-.23.484c-.292.205-.576.211-.921.209H4.03l-.228-.001.006.486.002.165.003.238v.075c.001.164.001.164.08.304.07.035.145.032.222.036l.049.003.121.007v.115H2.88v-.115l.067-.002.088-.004.087-.003c.09-.016.118-.034.172-.106a.5.5 0 0 0 .027-.17l.001-.063v-.069l.001-.072.001-.237V4.86l.001-.428q0-.221.003-.443l.001-.34.001-.163.001-.228.001-.068c-.001-.106-.003-.154-.068-.241-.079-.056-.134-.06-.23-.062l-.088-.003-.067-.005v-.115q.293-.026.586-.027" fill="#080808"/>
  <path d="M11.697 3.665c.196.173.281.414.325.665.017.274.03.569-.069.829l-.021.057a.84.84 0 0 1-.441.474.96.96 0 0 1-.642.008.8.8 0 0 1-.461-.452 2 2 0 0 1-.047-.156l-.012-.043a1.7 1.7 0 0 1-.042-.435v-.074c.005-.301.053-.584.263-.815a.91.91 0 0 1 1.146-.057" fill="#FCFCFC"/>
  <path d="M46.701 3.494h.049c.223.005.393.06.555.214.242.254.28.544.281.881l.001.075c.001.322-.063.618-.282.863-.183.173-.381.216-.626.214-.195-.014-.408-.07-.548-.214-.251-.302-.303-.702-.276-1.082.029-.291.094-.581.322-.783a.87.87 0 0 1 .524-.168" fill="#FDFDFD"/>
  <path d="m13.591 3.426.076-.001c.269-.001.536.041.75.215.141.155.171.262.169.471-.015.152-.089.238-.196.341a.94.94 0 0 1-.433.178l.034.028c.172.146.312.309.448.489.287.376.287.376.715.542v.092a5 5 0 0 1-.469.014l-.079-.001a.37.37 0 0 1-.256-.165l-.048-.079-.071-.096-.154-.213a7 7 0 0 0-.212-.285l-.03-.039-.086-.104-.052-.065c-.067-.053-.089-.058-.171-.065l-.057-.005-.042-.003.005.379.001.129q0 .093.003.185v.058c.002.087.004.133.056.205.069.047.123.048.205.051l.082.004.063.003v.092h-1.129v-.092l.064-.007.083-.01.083-.01c.07-.011.07-.011.097-.055.027-.079.026-.156.026-.239v-.055l.001-.181v-.39l.001-.338.001-.26.001-.125v-.174l.001-.052c-.001-.08-.006-.123-.055-.187-.059-.043-.097-.049-.17-.053l-.062-.004-.048-.002v-.092q.428-.024.855-.029m30.928-.409.049.034.112.081.092-.368h.115v1.129h-.092l-.02-.082c-.076-.298-.162-.576-.417-.77a2 2 0 0 0-.276-.138l-.063-.026c-.105-.028-.205-.028-.313-.028l-.063-.002c-.227-.001-.408.088-.575.241-.348.37-.381.878-.375 1.361.008.253.066.513.191.735l.028.052c.143.238.354.367.615.445.282.057.592-.021.83-.175.268-.206.363-.537.438-.852h.115v1.059h-.115l-.023-.06-.03-.077-.03-.077c-.026-.07-.026-.07-.101-.086v.046c-.304.293-.646.38-1.058.377a1.42 1.42 0 0 1-1.001-.425c-.335-.368-.409-.819-.387-1.3.028-.361.195-.736.442-1l.04-.043c.511-.493 1.328-.446 1.872-.05" fill="#070707"/>
  <path d="m26.854 3.063.069.069a.8.8 0 0 0 .115-.345h.115q.028.385.024.772v.105l-.001.252h-.092l-.02-.082c-.083-.324-.186-.635-.482-.822a1.2 1.2 0 0 0-.884-.132c-.263.093-.435.283-.558.525-.13.289-.163.58-.16.894l-.001.092c.001.391.106.759.377 1.047a.87.87 0 0 0 .646.264c.273-.004.559-.085.755-.285.175-.221.274-.491.328-.764h.092v1.059h-.092l-.138-.276-.079.06-.105.078-.047.036c-.302.218-.668.277-1.032.233a2 2 0 0 1-.166-.039l-.056-.014a1.34 1.34 0 0 1-.784-.569 2 2 0 0 1-.15-.338l-.025-.066c-.13-.44-.05-.966.155-1.367.2-.357.466-.559.852-.692.474-.105.972-.02 1.344.305" fill="#060606"/>
  <path d="M27.729 3.455h1.036v.069l-.041.001-.055.003-.054.002c-.084.024-.117.064-.172.131a1 1 0 0 0-.016.193l-.001.049-.001.18-.005.408h1.198l-.007-.422-.002-.133-.002-.104v-.055c-.002-.098-.002-.098-.042-.184-.058-.036-.114-.042-.181-.051l-.076-.011-.059-.007v-.069h1.059v.069l-.042.004-.056.006-.055.006a1 1 0 0 0-.146.03c-.029.09-.027.181-.027.274l-.001.055-.001.181v.062l-.001.327-.002.271-.002.327-.001.125-.001.174-.001.052c.001.091.012.13.069.201a.25.25 0 0 0 .171.066l.055.003.042.001v.092H29.25v-.092l.047-.004.062-.006.062-.006c.077-.009.077-.009.151-.03a.5.5 0 0 0 .028-.166l.001-.059.001-.062.001-.057.004-.212.011-.481H28.42l.004.465v.146l.002.115v.06c.002.102.007.145.071.228.066.049.101.06.183.064l.062.003.047.002v.092H27.73v-.092l.042-.004.056-.006.055-.006a1 1 0 0 0 .146-.03c.03-.091.026-.182.026-.277V3.767a.6.6 0 0 0-.026-.198l-.299-.046z" fill="#080808"/>
  <path d="M1.105 2.764H2.51v.115l-.072.001-.095.003h-.048c-.082.004-.124.012-.187.067-.069.127-.063.27-.063.411v.053l-.001.114-.001.181-.004.515-.003.315-.001.12c-.002.352-.028.651-.244.945-.264.252-.603.324-.956.319a.76.76 0 0 1-.544-.24.3.3 0 0 1-.072-.245c.022-.093.051-.127.127-.188a.44.44 0 0 1 .207 0 .3.3 0 0 1 .138.138c.005.128.005.128-.023.184-.012.068-.012.068 0 .138.122.094.244.085.392.069.19-.041.304-.143.415-.299.097-.163.096-.349.096-.533v-.062l.001-.202v-.436l.001-.378.001-.291.001-.139v-.195l.001-.058c-.001-.106-.009-.176-.078-.262-.07-.035-.145-.032-.222-.036l-.049-.003-.122-.006z" fill="#050505"/>
  <path d="M47.513 3.639c.231.175.394.383.461.668q.012.143.009.286l.001.075c-.001.335-.118.587-.346.83-.268.257-.605.338-.967.336a1.3 1.3 0 0 1-.914-.396c-.229-.25-.31-.596-.299-.926.023-.32.146-.578.381-.798.476-.396 1.16-.409 1.676-.076m-1.428.115c-.225.285-.262.71-.23 1.059.039.279.1.546.322.737l.034.03c.198.16.457.18.703.154a.85.85 0 0 0 .534-.392c.125-.242.138-.475.139-.742l.001-.074c.002-.324-.079-.601-.3-.841-.194-.174-.42-.198-.671-.193a.77.77 0 0 0-.533.261" fill="#070707"/>
  <path d="m11.157 3.424.075-.001c.349 0 .655.135.906.377.247.297.304.631.282 1.008a1.14 1.14 0 0 1-.416.751 1.45 1.45 0 0 1-1.087.261 1.3 1.3 0 0 1-.806-.477 2 2 0 0 1-.138-.276l-.025-.056c-.1-.285-.073-.663.048-.935.147-.289.37-.473.668-.599a1.6 1.6 0 0 1 .494-.053m-.639.338c-.26.331-.257.772-.218 1.173.024.177.077.33.179.477l.028.044a.78.78 0 0 0 .478.279c.261.019.51-.002.723-.171.237-.232.315-.551.319-.874.001-.358-.037-.639-.24-.942a.85.85 0 0 0-.615-.253c-.269.006-.469.064-.655.268" fill="#050505"/>
  <path d="M19.093 3.432h.092a137 137 0 0 1 .643 1.517l.072.173.084.203.036.087.03.075c.053.104.1.147.211.184l.075.017v.092h-.921v-.092l.044-.004.057-.006.057-.006c.051-.005.051-.005.096-.03.016-.159-.041-.278-.104-.422l-.058-.136-.026-.061c-.02-.048-.02-.048-.02-.094h-.898l-.069.207-.05.13a.57.57 0 0 0-.019.377l.207.046v.092h-.691v-.092l.039-.007a.32.32 0 0 0 .213-.157l.043-.089.024-.049q.136-.29.257-.586l.05-.119.13-.31.134-.318zm12.597 0c.053.002.053.002.115.023a1 1 0 0 1 .072.149l.019.048.062.158.045.111.096.238q.12.295.243.589l.079.19q.108.265.23.524l.036.076a.33.33 0 0 0 .208.146l.039.005v.092h-.921v-.092l.043-.003.056-.005.056-.005c.058-.007.058-.007.121-.056-.011-.151-.066-.272-.128-.409l-.058-.129-.026-.057c-.018-.05-.018-.05-.018-.119h-.898l-.023.115-.09.229a.6.6 0 0 0-.048.301c.055.073.092.108.18.134l.05.004v.092h-.691v-.092l.089-.046.05-.026c.045-.021.045-.021.091-.021l.02-.051.077-.177c.197-.437.382-.879.566-1.322z" fill="#090909"/>
  <path d="M20.636 3.455c.578-.065.578-.065.751.035.099.092.165.206.231.324.048.085.107.159.167.236l.068.091q.126.168.255.335c.421.552.421.552.554.752l.004-.58.002-.269.001-.26.001-.099.001-.139v-.08a.34.34 0 0 0-.077-.186.4.4 0 0 0-.202-.06l-.056-.005-.042-.003v-.092h.852v.092l-.046.006-.062.01-.061.009a.34.34 0 0 0-.177.136c-.017.069-.016.137-.015.208l-.001.063v.205l-.001.142-.001.373-.002.381-.003.748c-.092 0-.092 0-.127-.034l-.033-.048-.038-.053-.04-.058-.087-.121-.045-.063q-.102-.139-.208-.273a23 23 0 0 1-.327-.427l-.296-.392c-.336-.441-.336-.441-.448-.597l-.031-.044-.024-.033-.002.688-.001.319-.001.308v.283l-.001.049a.47.47 0 0 0 .052.242c.108.095.207.109.345.115v.092h-.852v-.092l.041-.007c.116-.022.195-.045.281-.131.034-.067.027-.135.027-.209v-.051l.001-.167v-.36l.001-.312.001-.241.001-.115v-.162l.001-.048a.6.6 0 0 0-.078-.292c-.053-.026-.094-.03-.153-.036l-.057-.006-.043-.005zm-3.524.138c.043.036.078.073.115.115l.069.023.046-.23h.092v.76h-.092l-.015-.058c-.067-.239-.16-.45-.376-.587a.93.93 0 0 0-.639-.079.82.82 0 0 0-.466.407c-.161.415-.154.979.025 1.388a.8.8 0 0 0 .442.365c.204.05.428.027.611-.079a.45.45 0 0 0 .165-.252q.012-.094.009-.189l.001-.049a.4.4 0 0 0-.036-.187c-.056-.049-.1-.055-.173-.065l-.069-.01-.055-.006v-.069h.99v.069l-.043.007-.056.01-.056.01c-.068.025-.085.049-.121.111-.012.071-.012.071-.012.15l-.002.087-.002.091-.002.092-.005.225-.072.008a1.8 1.8 0 0 0-.468.108 1.23 1.23 0 0 1-.911-.024 1.22 1.22 0 0 1-.632-.681c-.1-.33-.053-.718.103-1.02.159-.291.362-.478.677-.585.342-.098.656-.035.957.144" fill="#080808"/>
  <path d="M35.214 3.455h1.635c.053.401.053.401.046.576h-.069l-.022-.061-.03-.081-.029-.08c-.058-.132-.058-.132-.173-.214a1.5 1.5 0 0 0-.474-.063l-.262-.008v.967c.397.013.397.013.553-.092.024-.057.024-.057.03-.119l.01-.063.006-.048h.069v.783h-.092l-.003-.053-.005-.069-.005-.069c-.006-.067-.006-.067-.056-.131a.6.6 0 0 0-.172-.03l-.059-.003-.061-.003-.062-.003-.152-.007.007.365.002.124.004.179.001.056a.9.9 0 0 0 .055.313c.181.103.5.068.7.032.169-.058.245-.173.324-.327.043-.092.083-.181.105-.28h.092l-.018.304-.006.103-.009.148-.005.09c-.009.067-.009.067-.032.09l-.178.003h-.37l-.339-.001h-.345l-.678-.001V5.69l.058-.004.076-.009.075-.007c.074-.02.074-.02.105-.097a.7.7 0 0 0 .039-.269v-.338l-.001-.246v-.674l-.001-.162v-.048a.5.5 0 0 0-.053-.24c-.07-.05-.146-.058-.23-.069z" fill="#070707"/>
  <path d="M39.06 4.099c.077.026.087.039.132.103l.036.051.039.055.04.057q.173.245.342.494l.175.254.111.161c-.068.157-.221.268-.377.33a.72.72 0 0 1-.564-.067 1 1 0 0 1-.417-.585c-.031-.206.036-.375.151-.543.093-.122.199-.233.332-.309M3.8 2.833c.647 0 .647 0 .844.192.134.162.152.312.154.514l.002.06a.7.7 0 0 1-.203.513c-.213.194-.541.126-.797.126z" fill="#FCFCFC"/>
  <path d="M34.201 3.478a1 1 0 0 1 .126.108c.037.036.037.036.104.053l.046-.184h.092v.599h-.092l-.016-.045c-.081-.214-.164-.36-.375-.462a.7.7 0 0 0-.229-.029l-.071-.002c-.107.012-.165.056-.235.136-.067.093-.073.147-.063.263.029.137.11.206.223.282.18.113.374.2.567.288.165.076.308.145.404.308l.028.046c.081.155.072.383.027.55a.75.75 0 0 1-.39.385.8.8 0 0 1-.303.04l-.055-.001c-.263-.008-.421-.115-.616-.286l-.046.207h-.092v-.737h.092l.02.074c.066.232.135.434.348.571a.64.64 0 0 0 .501.05.5.5 0 0 0 .264-.223.8.8 0 0 0 .018-.356c-.033-.051-.033-.051-.069-.092v-.046l-.036-.018-.133-.067-.044-.022-.095-.048-.253-.125-.049-.024-.092-.045c-.151-.074-.282-.149-.365-.299l-.034-.059c-.074-.147-.064-.308-.05-.468.057-.167.202-.278.348-.366a.77.77 0 0 1 .596.043" fill="#070707"/>
  <path d="M13.427 3.524c.52 0 .52 0 .658.125.127.14.136.278.132.46-.012.135-.039.254-.138.351-.197.137-.419.123-.652.123z" fill="#FCFCFC"/>
  <path d="M39.558 2.836a.5.5 0 0 1 .223.238.5.5 0 0 1-.046.375c-.083.143-.214.299-.376.352-.076-.018-.095-.051-.14-.115l-.047-.085-.024-.042c-.081-.144-.142-.305-.111-.472a.5.5 0 0 1 .193-.242.42.42 0 0 1 .328-.009" fill="#F9F9F9"/>
  <path d="M31.598 3.869c.058.029.061.048.085.107l.022.054.024.059.025.06.051.126.079.193.05.122.024.059.022.054.019.048a.2.2 0 0 1 .014.085h-.806c.044-.132.088-.26.141-.388l.02-.049.041-.1.062-.154.04-.098L31.53 4c.044-.107.044-.107.07-.133" fill="#F6F6F6"/>
  <path d="M19 3.869c.074.086.11.183.151.287l.023.057.048.118.073.182.046.115.022.055c.052.128.052.128.052.153h-.806c.044-.132.088-.26.141-.388l.02-.049.041-.1.062-.154.04-.098.019-.047c.044-.107.044-.107.07-.133" fill="#F9F9F9"/>
  <path d="M48.549 5.343c.071.056.071.056.115.115l.023.023q.016.104 0 .207c-.056.069-.056.069-.115.115l-.023.023c-.114.015-.202.018-.301-.045a.42.42 0 0 1-.068-.278c.072-.169.2-.189.368-.161" fill="#050505"/>
</svg>
